<?xml version="1.0" standalone="no"?><!DOCTYPE svg PUBLIC "-//W3C//DTD SVG 1.1//EN" "http://www.w3.org/Graphics/SVG/1.1/DTD/svg11.dtd"><svg t="1568950136796" class="icon" viewBox="0 0 1024 1024" version="1.1" xmlns="http://www.w3.org/2000/svg" p-id="1604" xmlns:xlink="http://www.w3.org/1999/xlink" width="200" height="200"><defs><style type="text/css"></style></defs><path d="M192.630154 154.102154m23.049846 0l618.407385 0q23.049846 0 23.049846 23.049846l0 175.960615q0 23.049846-23.049846 23.049847l-618.407385 0q-23.049846 0-23.049846-23.049847l0-175.960615q0-23.049846 23.049846-23.049846Z" fill="#6F9DEE" p-id="1605"></path><path d="M164.145231 154.102154m23.049846 0l618.407385 0q23.049846 0 23.049846 23.049846l0 175.960615q0 23.049846-23.049846 23.049847l-618.407385 0q-23.049846 0-23.049846-23.049847l0-175.960615q0-23.049846 23.049846-23.049846Z" fill="#3173E7" p-id="1606"></path><path d="M233.314462 19.692308h556.022153v273.20123H233.314462z" fill="#DBF2FF" p-id="1607"></path><path d="M111.261538 326.498462h778.427077a93.577846 93.577846 0 0 1 93.568 93.568V757.169231a71.876923 71.876923 0 0 1-71.876923 71.876923H111.261538A71.876923 71.876923 0 0 1 39.384615 757.169231V398.375385a71.876923 71.876923 0 0 1 71.876923-71.876923z" fill="#3173E7" p-id="1608"></path><path d="M73.284923 291.426462m71.876923 0l767.576616 0q71.876923 0 71.876923 71.876923l0 358.813538q0 71.876923-71.876923 71.876923l-767.576616 0q-71.876923 0-71.876923-71.876923l0-358.813538q0-71.876923 71.876923-71.876923Z" fill="#8FC6F4" p-id="1609"></path><path d="M111.261538 291.426462h745.875693a93.577846 93.577846 0 0 1 93.577846 93.577846v315.411692a93.577846 93.577846 0 0 1-93.577846 93.577846H111.261538a71.876923 71.876923 0 0 1-71.876923-71.876923V363.303385a71.876923 71.876923 0 0 1 71.876923-71.876923z" fill="#5EADEF" p-id="1610"></path><path d="M154.653538 495.960615m21.700924 0l669.932307 0q21.700923 0 21.700923 21.700923l0 26.722462q0 21.700923-21.700923 21.700923l-669.932307 0q-21.700923 0-21.700924-21.700923l0-26.722462q0-21.700923 21.700924-21.700923Z" fill="#3173E7" p-id="1611"></path><path d="M233.314462 529.565538h556.022153V964.923077H233.314462z" fill="#DBF2FF" p-id="1612"></path><path d="M287.556923 612.834462m2.707692 0l442.112 0q2.707692 0 2.707693 2.707692l0 17.959384q0 2.707692-2.707693 2.707693l-442.112 0q-2.707692 0-2.707692-2.707693l0-17.959384q0-2.707692 2.707692-2.707692Z" fill="#0E2B5D" p-id="1613"></path><path d="M287.556923 694.646154m2.707692 0l442.112 0q2.707692 0 2.707693 2.707692l0 17.959385q0 2.707692-2.707693 2.707692l-442.112 0q-2.707692 0-2.707692-2.707692l0-17.959385q0-2.707692 2.707692-2.707692Z" fill="#0E2B5D" p-id="1614"></path><path d="M287.556923 776.457846m2.707692 0l442.112 0q2.707692 0 2.707693 2.707692l0 17.959385q0 2.707692-2.707693 2.707692l-442.112 0q-2.707692 0-2.707692-2.707692l0-17.959385q0-2.707692 2.707692-2.707692Z" fill="#0E2B5D" p-id="1615"></path><path d="M287.556923 858.269538m2.707692 0l442.112 0q2.707692 0 2.707693 2.707693l0 17.959384q0 2.707692-2.707693 2.707693l-442.112 0q-2.707692 0-2.707692-2.707693l0-17.959384q0-2.707692 2.707692-2.707693Z" fill="#0E2B5D" p-id="1616"></path><path d="M680.841846 426.564923a25.570462 23.729231 90 1 0 47.458462 0 25.570462 23.729231 90 1 0-47.458462 0Z" fill="#19FFDE" p-id="1617"></path><path d="M774.419692 426.564923a25.570462 23.729231 90 1 0 47.458462 0 25.570462 23.729231 90 1 0-47.458462 0Z" fill="#FFC800" p-id="1618"></path></svg>